<svg width="68" height="90" viewBox="0 0 68 90" fill="none" xmlns="http://www.w3.org/2000/svg">
<path d="M55.7887 89.0685L55.4105 54.1366L45.9808 52.2912H21.092L11.6624 54.1366L11.4963 89.0685H55.7887Z" fill="#D2D2D2"/>
<path d="M67.3637 89.0686C66.1458 81.9594 61.9153 60.3553 59.7194 57.1214C57.3482 53.6245 54.4879 54.1689 54.4879 54.1689V78.0889C54.4879 78.0889 55.9642 85.0088 56.7438 89.0686H67.3637Z" fill="#EAEAEA"/>
<path d="M10.6614 89.0686C11.584 84.6306 13.4294 76.5573 13.4294 76.5573L12.8758 54.1689C12.8758 54.1689 10.0155 53.6245 7.64426 57.1214C5.44832 60.3507 1.21791 81.9594 0 89.0686H10.6614Z" fill="#EAEAEA"/>
<path d="M43.5082 9.95947H23.5741C21.7302 9.95947 19.9619 10.6919 18.6581 11.9957C17.3543 13.2995 16.6218 15.0679 16.6218 16.9117V34.756C16.6218 42.6771 24.9258 49.1542 32.8653 49.1542H34.1109C42.0827 49.1542 50.4282 42.6309 50.4282 34.6684V16.9117C50.4282 15.0735 49.7002 13.31 48.4033 12.0071C47.1065 10.7043 45.3465 9.96801 43.5082 9.95947Z" fill="#EDB277"/>
<path d="M50.6681 7.83739C50.3851 7.49647 50.2229 7.07145 50.2068 6.62868C50.2068 5.32311 50.8711 4.89409 50.8711 4.89409C50.5524 4.71246 50.1831 4.63958 49.8193 4.68649C49.5291 4.72274 49.2432 4.78763 48.9658 4.88024C49.3953 4.37639 49.9463 3.99054 50.5666 3.75921C51.4893 3.44089 52.2735 3.26558 52.2735 3.26558C52.2735 3.26558 35.578 -0.425075 29.3315 1.125C31.6059 3.66232 47.3419 6.87321 50.6681 7.83739Z" fill="#3C2516"/>
<path opacity="0.5" d="M27.0289 34.5419C27.5286 31.6962 25.5861 28.977 22.6902 28.4684C19.7943 27.9599 17.0415 29.8546 16.5418 32.7003C16.0421 35.546 17.9846 38.2652 20.8805 38.7737C23.7764 39.2823 26.5291 37.3876 27.0289 34.5419Z" fill="url(#paint0_radial)"/>
<path opacity="0.5" d="M49.6718 34.773C50.1715 31.9273 48.229 29.2081 45.3331 28.6995C42.4372 28.191 39.6845 30.0857 39.1848 32.9314C38.685 35.7771 40.6275 38.4963 43.5234 39.0048C46.4193 39.5134 49.1721 37.6187 49.6718 34.773Z" fill="url(#paint1_radial)"/>
<path d="M17.3368 26.655C17.3368 26.655 14.5965 25.0081 14.2136 29.0355C13.8307 33.0629 15.2285 35.4941 16.0589 36.0293C16.8893 36.5644 17.346 36.4076 17.346 36.4076L17.3368 26.655Z" fill="#EDB277"/>
<path d="M49.2841 26.655C49.2841 26.655 52.0291 25.0081 52.412 29.0355C52.7949 33.0629 51.397 35.4941 50.5666 36.0293C49.7362 36.5644 49.2749 36.4076 49.2749 36.4076L49.2841 26.655Z" fill="#EDB277"/>
<path d="M49.284 16.515H16.4603V19.7674H49.284V16.515Z" fill="black"/>
<path d="M25.7146 39.6646C28.1087 40.9813 30.802 41.6582 33.5342 41.6299C36.3182 41.6483 39.046 40.846 41.3768 39.3232C41.3768 39.3232 38.452 43.4752 33.6726 43.2953C28.8932 43.1153 25.7146 39.6646 25.7146 39.6646Z" fill="#EAEAEA"/>
<path d="M23.9984 29.1554C23.9707 28.4173 24.1368 27.3839 24.8103 26.9595C25.733 26.3598 27.0017 27.1256 27.5783 27.9145C27.8874 28.3389 28.5887 27.9145 28.2749 27.4854C27.4815 26.3967 25.9683 25.5248 24.635 26.1291C23.514 26.632 23.1357 28.0344 23.1772 29.1739C23.1772 29.2828 23.2205 29.3872 23.2975 29.4642C23.3745 29.5412 23.4789 29.5845 23.5878 29.5845C23.6967 29.5845 23.8011 29.5412 23.8781 29.4642C23.9551 29.3872 23.9984 29.2828 23.9984 29.1739V29.1554Z" fill="black"/>
<path d="M44.297 28.9663C44.2555 27.7115 43.7065 26.1984 42.3963 25.8016C41.0862 25.4049 39.8313 26.346 39.2362 27.4855C38.9917 27.9468 39.6976 28.3528 39.9559 27.8822C40.3803 27.0703 41.2615 26.2399 42.2395 26.6182C43.1252 26.9642 43.4482 28.1083 43.4759 28.9848C43.4759 29.0937 43.5191 29.1981 43.5961 29.2751C43.6731 29.3521 43.7776 29.3954 43.8864 29.3954C43.9953 29.3954 44.0998 29.3521 44.1768 29.2751C44.2538 29.1981 44.297 29.0937 44.297 28.9848V28.9663Z" fill="black"/>
<path d="M21.3412 61.7209L31.043 89.0686H32.3255L25.83 51.3686L21.1521 51.7054L20.1694 55.4698L23.002 58.7914L21.3412 61.7209Z" fill="#F1F2F2"/>
<path d="M36.0299 89.0686L45.7317 61.7209L44.0709 58.7914L46.9035 55.4698L45.8609 51.936L41.2384 51.3686L34.7474 89.0686H36.0299Z" fill="#F1F2F2"/>
<path d="M34.7475 89.0686L41.2384 51.3686H25.83L32.3255 89.0686H34.7475Z" fill="#C3C3ED"/>
<path d="M25.83 51.3686V47.4611L33.5342 49.0757L41.2384 47.4611V51.3686H25.83Z" fill="#C3C3ED"/>
<path d="M32.3254 89.0685H34.7428L36.4313 79.2652L35.2272 55.0776C35.2272 55.0776 35.7716 53.4307 35.9607 52.4757C36.2237 51.1748 34.2076 49.7862 33.5295 49.7862C32.8513 49.7862 30.8399 51.1702 31.0983 52.4757C31.292 53.4307 31.8318 55.0776 31.8318 55.0776L30.6323 79.2652L32.3254 89.0685Z" fill="#616161"/>
<path d="M30.2495 31.9235H17.7936V23.5688H30.2495V31.9235ZM18.9515 30.784H29.1008V24.7082H18.9515V30.784Z" fill="black"/>
<path d="M48.3844 31.9235H35.9285V23.5688H48.3844V31.9235ZM37.0864 30.784H47.2357V24.7082H37.0864V30.784Z" fill="black"/>
<path d="M36.5144 26.1291H29.6775V27.0795H36.5144V26.1291Z" fill="black"/>
<path d="M48.1676 25.9631V26.9134L51.3508 26.6043V25.654L48.1676 25.9631Z" fill="black"/>
<path d="M14.8918 25.2065V26.1522L18.075 26.4613V25.5155L14.8918 25.2065Z" fill="black"/>
<path opacity="0.1" d="M37.0863 30.8163L44.0109 24.7082H37.0863V30.8163Z" fill="#EAEAEA"/>
<path opacity="0.1" d="M18.9514 30.8163L25.876 24.7082H18.9514V30.8163Z" fill="#EAEAEA"/>
<path d="M18.4947 14.6927C18.4947 14.6927 24.5427 17.8575 34.692 18.3372C44.8413 18.817 48.0706 16.5381 48.0706 16.5381C48.6858 18.9045 49.1649 21.3043 49.5054 23.7256C50.0636 27.7207 50.3819 31.3975 50.3819 31.3975C52.0413 27.2322 52.8567 22.7788 52.7808 18.2957C52.5409 11.265 51.7797 6.63327 46.3453 3.20096C40.9108 -0.231342 28.178 -1.17245 22.7436 1.70625C17.3091 4.58496 17.2814 6.7809 17.2814 6.7809C17.2814 6.7809 13.2125 9.95947 12.9864 18.7755C12.9042 23.2151 14.0987 27.5849 16.4279 31.3653C16.4279 31.3653 16.9446 24.4453 17.4475 20.6531C17.8904 17.2993 18.4947 14.6927 18.4947 14.6927Z" fill="#3C2516"/>
<path d="M33.834 19.7674C37.0418 19.7674 39.6422 17.167 39.6422 13.9592C39.6422 10.7514 37.0418 8.15106 33.834 8.15106C30.6263 8.15106 28.0259 10.7514 28.0259 13.9592C28.0259 17.167 30.6263 19.7674 33.834 19.7674Z" fill="#E6E7E8"/>
<defs>
<radialGradient id="paint0_radial" cx="0" cy="0" r="1" gradientUnits="userSpaceOnUse" gradientTransform="translate(1187.48 6403.07) scale(119.697 121.808)">
<stop offset="0.15" stop-color="#F7956E"/>
<stop offset="0.2" stop-color="#F7966F" stop-opacity="0.97"/>
<stop offset="0.29" stop-color="#F89A73" stop-opacity="0.88"/>
<stop offset="0.38" stop-color="#F9A178" stop-opacity="0.73"/>
<stop offset="0.5" stop-color="#FAA980" stop-opacity="0.53"/>
<stop offset="0.62" stop-color="#FBB58A" stop-opacity="0.27"/>
<stop offset="0.74" stop-color="#FDC094" stop-opacity="0"/>
</radialGradient>
<radialGradient id="paint1_radial" cx="0" cy="0" r="1" gradientUnits="userSpaceOnUse" gradientTransform="translate(1723.65 6408.31) scale(119.696 121.808)">
<stop offset="0.15" stop-color="#F7956E"/>
<stop offset="0.2" stop-color="#F7966F" stop-opacity="0.97"/>
<stop offset="0.29" stop-color="#F89A73" stop-opacity="0.88"/>
<stop offset="0.38" stop-color="#F9A178" stop-opacity="0.73"/>
<stop offset="0.5" stop-color="#FAA980" stop-opacity="0.53"/>
<stop offset="0.62" stop-color="#FBB58A" stop-opacity="0.27"/>
<stop offset="0.74" stop-color="#FDC094" stop-opacity="0"/>
</radialGradient>
</defs>
</svg>
