<svg width="67" height="89" viewBox="0 0 67 89" fill="none" xmlns="http://www.w3.org/2000/svg">
<path d="M40.8676 49.2114C39.9414 48.3859 40.3723 43.2809 40.3723 43.2809L33.334 43.636L26.2957 43.2809C26.2957 43.2809 26.7415 48.3859 25.8004 49.2114C25.2666 49.7003 24.6009 50.046 23.8737 50.2121C23.8737 50.2121 23.9479 54.2472 28.2472 55.4185C29.2781 55.7054 30.3247 55.9409 31.3825 56.1241C32.6643 56.3454 33.9789 56.3454 35.2607 56.1241C36.3183 55.9399 37.3648 55.7044 38.396 55.4185C42.6903 54.2472 42.7646 50.2121 42.7646 50.2121C42.048 50.0415 41.3932 49.696 40.8676 49.2114Z" fill="#EDB277"/>
<path d="M54.875 89C54.8007 73.7542 54.5927 52.2781 54.5927 52.2781L46.1725 50.2674H42.4923L33.3638 53.6892L24.27 50.2674H20.5849L12.6353 52.2273C12.6353 52.2273 12.3975 73.2976 12.2886 89H54.875Z" fill="#EAEAEA"/>
<path d="M67 89C67 88.7694 66.9604 88.585 66.9406 88.4604C66.1283 83.5445 61.0267 58.5913 58.4808 55.0957C55.9349 51.6002 52.864 52.1443 52.864 52.1443V76.0553C52.864 76.0553 55.1226 85.9471 55.6773 89H67Z" fill="#EAEAEA"/>
<path d="M11.3276 89C11.9616 85.7719 14.7304 74.5243 14.7304 74.5243L14.136 52.1443C14.136 52.1443 11.0651 51.6002 8.51927 55.0957C5.97339 58.5913 0.886595 83.5491 0.0594343 88.4604C0.0594343 88.585 0.0198122 88.7694 0 89H11.3276Z" fill="#EAEAEA"/>
<path d="M43.6166 9.5242H23.0812C22.1382 9.52419 21.2044 9.69758 20.3335 10.0344C19.4627 10.3713 18.6718 10.8649 18.0063 11.4871C17.3409 12.1092 16.8139 12.8476 16.4558 13.6598C16.0976 14.4721 15.9152 15.3422 15.9191 16.2202V33.3476C15.9191 40.9428 24.4978 47.1823 32.6555 47.1823H33.9433C42.1604 47.1823 50.7837 40.9198 50.7837 33.2692V16.2202C50.787 15.342 50.604 14.4718 50.2453 13.6595C49.8865 12.8472 49.3591 12.1089 48.6933 11.4868C48.0274 10.8647 47.2363 10.3711 46.3651 10.0343C45.4939 9.69756 44.5599 9.5242 43.6166 9.5242Z" fill="#EDB277"/>
<path d="M51.0066 7.48588C50.7209 7.15749 50.5591 6.7508 50.546 6.32838C50.546 5.07865 51.2295 4.66361 51.2295 4.66361C50.9023 4.49006 50.5232 4.42046 50.1497 4.46531C49.8501 4.49971 49.5547 4.5615 49.2681 4.64977C49.704 4.16394 50.2669 3.79074 50.9026 3.56605C51.8932 3.25707 52.6659 3.10489 52.6659 3.10489C52.6659 3.10489 35.454 -0.432181 29.015 1.05274C31.3578 3.48304 47.5791 6.56818 51.0066 7.48588Z" fill="#3C2516"/>
<path opacity="0.5" d="M22.1848 27.2879C21.1346 27.1309 20.0581 27.2664 19.0905 27.6775C18.1228 28.0885 17.3073 28.7568 16.7465 29.5981C16.1856 30.4395 15.9044 31.4165 15.9383 32.4062C15.9721 33.396 16.3195 34.3543 16.9367 35.1608C17.5539 35.9672 18.4135 36.5858 19.4072 36.9387C20.401 37.2916 21.4846 37.3631 22.5219 37.1441C23.5591 36.9252 24.5037 36.4257 25.2369 35.7083C25.9701 34.9909 26.4591 34.0878 26.6425 33.1124C26.8764 31.7902 26.5388 30.4356 25.7036 29.3443C24.8684 28.253 23.6034 27.5138 22.1848 27.2879Z" fill="url(#paint0_radial)"/>
<path opacity="0.5" d="M49.9904 33.3211C50.5052 30.5918 48.5025 27.9836 45.5172 27.4955C42.532 27.0074 39.6946 28.8243 39.1799 31.5535C38.6651 34.2828 40.6678 36.891 43.6531 37.3791C46.6383 37.8672 49.4757 36.0503 49.9904 33.3211Z" fill="url(#paint1_radial)"/>
<path d="M16.6571 25.5448C16.6571 25.5448 13.8289 23.9676 13.4326 27.8506C13.0364 31.7335 14.4777 34.0485 15.3247 34.565C16.1717 35.0815 16.6571 34.9247 16.6571 34.9247V25.5448Z" fill="#EDB277"/>
<path d="M49.5851 25.5448C49.5851 25.5448 52.4083 23.9676 52.8046 27.8506C53.2008 31.7335 51.7595 34.0485 50.9125 34.565C50.0655 35.0815 49.5851 34.9247 49.5851 34.9247V25.5448Z" fill="#EDB277"/>
<path d="M49.5851 15.8144H15.7507V18.9364H49.5851V15.8144Z" fill="black"/>
<path d="M25.2854 38.0329C27.7543 39.2968 30.5316 39.9465 33.349 39.919C36.2128 39.9304 39.017 39.1574 41.4126 37.6963C41.4126 37.6963 38.3961 41.676 33.4877 41.51C28.5792 41.344 25.2854 38.0329 25.2854 38.0329Z" fill="#EAEAEA"/>
<path d="M20.2432 59.6935L31.4123 89H32.4029L25.0675 49.3451L19.8816 50.2674L18.9851 53.4448L22.0263 56.7651L20.2432 59.6935Z" fill="#F1F2F2"/>
<path d="M35.2658 89L46.4349 59.6935L44.6518 56.7651L47.693 53.4448L46.6875 50.2674L41.6106 49.3451L34.2751 89H35.2658Z" fill="#F1F2F2"/>
<path d="M34.2751 89L41.6106 49.3451L33.3489 52.8545L25.0674 49.3451L32.4029 89H34.2751Z" fill="#A2D8F0"/>
<path d="M17.8459 14.0666C17.8459 14.0666 24.0818 17.1056 34.5377 17.5668C44.9936 18.0279 48.3122 15.8374 48.3122 15.8374C48.9514 18.1144 49.4476 20.4241 49.7981 22.7548C50.3776 26.5916 50.7045 30.1333 50.7045 30.1333C52.416 26.1353 53.2578 21.8608 53.181 17.5575C52.9334 10.8108 52.1508 6.36987 46.5489 3.0726C40.947 -0.224676 27.8214 -1.12393 22.2244 1.6384C16.6274 4.40073 16.5928 6.51744 16.5928 6.51744C16.5928 6.51744 12.3975 9.5703 12.1647 18.0464C12.0814 22.3082 13.3122 26.5029 15.7111 30.1333C15.7111 30.1333 16.2411 23.4465 16.7364 19.8172C17.2317 16.5707 17.8459 14.0666 17.8459 14.0666Z" fill="#3C2516"/>
<path d="M33.661 18.9364C36.9655 18.9364 39.6443 16.4423 39.6443 13.3656C39.6443 10.289 36.9655 7.79486 33.661 7.79486C30.3566 7.79486 27.6777 10.289 27.6777 13.3656C27.6777 16.4423 30.3566 18.9364 33.661 18.9364Z" fill="#E6E7E8"/>
<path d="M45.0184 25.9045C44.9344 26.3541 44.7089 26.7705 44.3705 27.1007C44.0321 27.4309 43.5961 27.6603 43.1177 27.7596C42.6392 27.859 42.1399 27.8239 41.6828 27.6588C41.2258 27.4937 40.8317 27.2061 40.5504 26.8323C40.2691 26.4585 40.1133 26.0154 40.1026 25.5591C40.092 25.1028 40.2271 24.6538 40.4907 24.269C40.7544 23.8842 41.1347 23.581 41.5837 23.3976C42.0326 23.2142 42.5298 23.159 43.0124 23.239C43.6575 23.3459 44.2308 23.6864 44.6068 24.186C44.9827 24.6856 45.1308 25.3035 45.0184 25.9045Z" fill="black"/>
<path d="M44.8698 25.2174C44.8293 25.4365 44.72 25.6396 44.5556 25.8009C44.3913 25.9622 44.1792 26.0746 43.9463 26.1238C43.7134 26.1731 43.4701 26.1569 43.247 26.0775C43.0239 25.998 42.8312 25.8589 42.693 25.6775C42.5548 25.4961 42.4775 25.2807 42.4707 25.0584C42.4639 24.8361 42.5281 24.6169 42.655 24.4286C42.7819 24.2402 42.9659 24.0911 43.1838 24C43.4017 23.9089 43.6437 23.88 43.8792 23.9169C44.1954 23.9676 44.4772 24.133 44.6629 24.3767C44.8485 24.6204 44.9229 24.9227 44.8698 25.2174Z" fill="#EAEAEA"/>
<path d="M26.6771 25.9045C26.5916 26.3531 26.3653 26.7681 26.0267 27.0971C25.6881 27.4261 25.2524 27.6543 24.7746 27.7529C24.2968 27.8515 23.7984 27.8161 23.3422 27.6512C22.886 27.4862 22.4925 27.1992 22.2114 26.8262C21.9303 26.4532 21.7742 26.0111 21.7628 25.5556C21.7513 25.1001 21.8851 24.6516 22.1472 24.2668C22.4093 23.882 22.788 23.5782 23.2354 23.3936C23.6829 23.209 24.179 23.152 24.6612 23.2298C24.9825 23.2816 25.2896 23.3919 25.565 23.5545C25.8403 23.7171 26.0785 23.9288 26.2658 24.1773C26.4531 24.4258 26.5859 24.7063 26.6564 25.0027C26.727 25.2991 26.734 25.6056 26.6771 25.9045Z" fill="black"/>
<path d="M26.5286 25.2174C26.4881 25.4365 26.3788 25.6396 26.2144 25.8009C26.0501 25.9622 25.838 26.0746 25.6051 26.1238C25.3722 26.1731 25.1289 26.1569 24.9058 26.0775C24.6827 25.998 24.4899 25.8589 24.3518 25.6775C24.2136 25.4961 24.1363 25.2807 24.1295 25.0584C24.1228 24.8361 24.1869 24.6169 24.3138 24.4286C24.4407 24.2402 24.6247 24.0911 24.8426 24C25.0605 23.9089 25.3025 23.88 25.538 23.9169C25.8542 23.9676 26.136 24.133 26.3217 24.3767C26.5073 24.6204 26.5817 24.9227 26.5286 25.2174Z" fill="#EAEAEA"/>
<path d="M42.1902 22.0769C42.7635 21.9927 43.3506 22.0549 43.889 22.2567C43.9817 22.2848 44.0795 22.2947 44.1765 22.286C44.2734 22.2772 44.3674 22.2499 44.4525 22.2058C44.5376 22.1617 44.612 22.1018 44.6711 22.0297C44.7302 21.9576 44.7727 21.8749 44.7959 21.7868C44.8191 21.6987 44.8226 21.6072 44.8061 21.5178C44.7896 21.4284 44.7534 21.3432 44.6999 21.2674C44.6464 21.1916 44.5767 21.1269 44.4951 21.0773C44.4136 21.0278 44.3219 20.9944 44.2259 20.9793C43.5645 20.7399 42.8474 20.6652 42.1456 20.7626C41.9607 20.7742 41.7875 20.8506 41.6607 20.9764C41.5338 21.1022 41.4629 21.268 41.462 21.4405C41.4685 21.6146 41.5487 21.7793 41.6851 21.8985C41.8216 22.0177 42.0031 22.0819 42.1902 22.0769Z" fill="#4A392F"/>
<path d="M22.3977 22.5749C22.5556 22.4499 22.7398 22.357 22.9386 22.3022C23.1374 22.2474 23.3462 22.2319 23.5518 22.2567C23.7383 22.2518 23.9151 22.1782 24.0433 22.0519C24.1715 21.9256 24.2406 21.7571 24.2353 21.5834C24.2301 21.4098 24.1509 21.2452 24.0153 21.1258C23.8797 21.0065 23.6987 20.9422 23.5122 20.947C23.1211 20.9231 22.7289 20.9751 22.3606 21.0997C21.9922 21.2244 21.6557 21.4189 21.3724 21.6711C21.3074 21.7337 21.2562 21.8077 21.2219 21.8888C21.1876 21.9699 21.1707 22.0565 21.1723 22.1436C21.174 22.2308 21.194 22.3168 21.2313 22.3967C21.2686 22.4766 21.3224 22.549 21.3898 22.6095C21.4571 22.6701 21.5366 22.7177 21.6237 22.7497C21.7107 22.7816 21.8037 22.7973 21.8973 22.7958C21.9909 22.7943 22.0833 22.7757 22.1692 22.7409C22.255 22.7062 22.3327 22.6561 22.3977 22.5934V22.5749Z" fill="#4A392F"/>
<path d="M29.9858 56.2901L33.3489 52.8545L25.0674 49.3451L26.0679 54.7452L29.9858 56.2901Z" fill="#88CBE8"/>
<path d="M36.6823 56.2901L33.3489 52.8545L41.6205 49.3451L40.62 54.7452L36.6823 56.2901Z" fill="#88CBE8"/>
<path d="M32.4029 89H34.2752L36.4496 77.2359L34.9983 58.1486L35.9592 55.543L33.349 52.8545L30.7387 55.543L31.66 58.1486L30.2285 77.2359L32.4029 89Z" fill="#616161"/>
<path d="M21.6895 74.183C21.6895 74.183 20.7682 64.199 21.6895 58.1532C22.6107 52.1074 26.0828 48.8424 26.0828 48.8424C26.1729 48.6058 26.2392 48.3619 26.281 48.1138C26.337 47.7915 26.3751 47.4667 26.3949 47.1408C26.3949 47.1408 21.3725 50.0322 20.2432 58.0886C19.5778 63.4335 19.5363 68.8298 20.1193 74.183H21.6895Z" fill="#182746"/>
<path d="M45.6276 62.0592H47.163C47.163 61.7871 47.163 61.515 47.163 61.2383C47.0788 60.316 46.96 59.3937 46.8064 58.4714C45.479 50.4427 40.3328 46.9425 40.3328 46.9425C40.3328 46.9425 40.3328 47.2976 40.4021 47.7449C40.4457 48.0652 40.5119 48.3826 40.6002 48.6949C43.1569 51.4775 44.8066 54.8822 45.3552 58.5083C45.484 59.3522 45.578 60.2745 45.6424 61.2337C45.6375 61.5104 45.6127 61.7825 45.6276 62.0592Z" fill="#182746"/>
<path d="M50.7688 81.8106C50.7688 81.8106 53.6466 81.5293 54.0775 80.0582C54.5084 78.5871 54.5133 78.149 53.9735 76.1937C53.4336 74.2384 51.9576 70.0096 51.9576 70.0096L52.4529 69.8297C52.4529 69.8297 53.6862 72.8318 54.2905 74.9439C54.8947 77.056 55.3306 78.7116 54.6372 80.3441C53.9437 81.9766 51.3681 82.3409 51.2394 82.3547C51.0548 82.3859 50.8665 82.3936 50.6797 82.3778L50.7688 81.8106Z" fill="#808285"/>
<path d="M49.9219 82.6821C49.9219 82.6821 51.0364 82.9081 50.9621 82.1518C50.8878 81.3955 50.3479 81.5707 50.1646 81.5892C50.0411 81.6027 49.9216 81.6387 49.813 81.6953L49.9219 82.6821Z" fill="#364D81"/>
<path d="M48.9759 82.8297C49.1139 82.932 49.2805 82.9955 49.456 83.0126C49.6315 83.0298 49.8086 82.9999 49.9665 82.9265C50.5559 82.6821 50.5559 81.6814 49.9962 81.4647C49.8491 81.3943 49.6861 81.3575 49.5207 81.3575C49.3553 81.3575 49.1923 81.3943 49.0452 81.4647C48.9458 81.5466 48.8678 81.6486 48.8171 81.7629C48.7665 81.8772 48.7445 82.0007 48.753 82.1241C48.7629 82.4654 48.8372 82.7467 48.9759 82.8297Z" fill="#364D81"/>
<path d="M50.2439 82.7144H50.2835C50.4068 82.5453 50.4685 82.3438 50.4596 82.1396C50.4507 81.9354 50.3716 81.7392 50.234 81.58H50.1844C50.3228 81.7385 50.4032 81.9341 50.4139 82.1381C50.4246 82.3422 50.365 82.5441 50.2439 82.7144Z" fill="#182746"/>
<path d="M48.9312 82.7836C49.0519 82.7328 49.1514 82.6468 49.2149 82.5387C49.2783 82.4305 49.3022 82.306 49.2829 82.1841C49.2883 82.0859 49.2703 81.9878 49.23 81.8969C49.1898 81.806 49.1283 81.7245 49.0501 81.6584C49.0129 81.6213 48.9694 81.5901 48.9213 81.5662C48.7957 81.75 48.7383 81.967 48.7579 82.1841C48.7505 82.3955 48.8108 82.6042 48.9312 82.7836Z" fill="#4C72B1"/>
<path d="M48.9313 82.7836C49.0292 82.7119 49.1067 82.6189 49.1568 82.5127C49.2069 82.4066 49.2281 82.2905 49.2186 82.1749C49.2162 82.0599 49.1886 81.9466 49.1375 81.842C49.0864 81.7373 49.0128 81.6434 48.9214 81.5662C48.8085 81.754 48.7634 81.9706 48.7926 82.1841C48.7786 82.392 48.8266 82.5995 48.9313 82.7836Z" fill="#293F68"/>
<path d="M48.8718 82.2118C48.8718 81.972 48.9312 81.7737 49.0105 81.7737C49.0897 81.7737 49.1442 81.972 49.1442 82.2118C49.1442 82.4516 49.0848 82.6729 49.0105 82.6729C48.9362 82.6729 48.8718 82.4516 48.8718 82.2118Z" fill="#1F3C68"/>
<path d="M48.9758 82.221C48.9758 82.138 48.9758 82.078 49.0253 82.078C49.0749 82.078 49.0798 82.138 49.0798 82.221C49.0798 82.304 49.0798 82.3639 49.0253 82.3639C48.9709 82.3639 48.9758 82.2994 48.9758 82.221Z" fill="#192A48"/>
<path d="M51.9872 70.3508L52.641 70.111L51.4226 67.5101L50.7192 67.8652L51.9872 70.3508Z" fill="#182746"/>
<path d="M42.0762 81.8106C42.0762 81.8106 39.1985 81.5293 38.7675 80.0582C38.3366 78.5871 38.3317 78.149 38.8765 76.1937C39.4213 74.2384 40.8874 70.0096 40.8874 70.0096L40.3921 69.8297C40.3921 69.8297 39.1588 72.8318 38.5545 74.9439C37.9503 77.056 37.5144 78.7116 38.2078 80.3441C38.9013 81.9766 41.4769 82.3409 41.6056 82.3547C41.7902 82.3859 41.9785 82.3936 42.1653 82.3778L42.0762 81.8106Z" fill="#808285"/>
<path d="M42.9232 82.6821C42.9232 82.6821 41.8088 82.9081 41.8831 82.1518C41.9574 81.3955 42.4972 81.5707 42.6805 81.5892C42.8041 81.6027 42.9236 81.6387 43.0322 81.6953L42.9232 82.6821Z" fill="#364D81"/>
<path d="M43.8693 82.8297C43.7313 82.932 43.5647 82.9955 43.3892 83.0126C43.2137 83.0298 43.0366 82.9999 42.8787 82.9265C42.2893 82.6821 42.2893 81.6814 42.849 81.4647C42.9961 81.3943 43.1591 81.3575 43.3245 81.3575C43.4899 81.3575 43.6529 81.3943 43.8 81.4647C43.8994 81.5466 43.9774 81.6486 44.0281 81.7629C44.0787 81.8772 44.1007 82.0007 44.0922 82.1241C44.0823 82.4654 44.008 82.7467 43.8693 82.8297Z" fill="#364D81"/>
<path d="M42.6012 82.7144H42.5616C42.4383 82.5453 42.3766 82.3438 42.3855 82.1396C42.3944 81.9354 42.4735 81.7392 42.6111 81.58H42.6606C42.5223 81.7385 42.4419 81.9341 42.4312 82.1381C42.4205 82.3422 42.48 82.5441 42.6012 82.7144Z" fill="#182746"/>
<path d="M43.9039 82.7836C43.7833 82.7328 43.6838 82.6468 43.6203 82.5387C43.5569 82.4305 43.533 82.306 43.5523 82.1841C43.5482 82.0861 43.5669 81.9883 43.6071 81.8976C43.6472 81.8069 43.708 81.7253 43.7851 81.6584C43.8222 81.6213 43.8658 81.5901 43.9139 81.5662C44.0394 81.75 44.0969 81.967 44.0773 82.1841C44.0879 82.3959 44.0273 82.6054 43.9039 82.7836Z" fill="#4C72B1"/>
<path d="M43.9039 82.7836C43.8059 82.7119 43.7285 82.6189 43.6784 82.5127C43.6283 82.4066 43.6071 82.2905 43.6166 82.1749C43.619 82.0599 43.6466 81.9466 43.6977 81.842C43.7488 81.7373 43.8223 81.6434 43.9138 81.5662C44.0266 81.754 44.0718 81.9706 44.0426 82.1841C44.0566 82.392 44.0086 82.5995 43.9039 82.7836Z" fill="#293F68"/>
<path d="M43.9782 82.2118C43.9782 81.972 43.9188 81.7737 43.8445 81.7737C43.7702 81.7737 43.7058 81.972 43.7058 82.2118C43.7058 82.4516 43.7652 82.6729 43.8445 82.6729C43.9237 82.6729 43.9782 82.4516 43.9782 82.2118Z" fill="#1F3C68"/>
<path d="M43.8693 82.221C43.8693 82.138 43.8693 82.078 43.8197 82.078C43.7702 82.078 43.7653 82.138 43.7653 82.221C43.7653 82.304 43.7653 82.3639 43.8197 82.3639C43.8742 82.3639 43.8693 82.2994 43.8693 82.221Z" fill="#192A48"/>
<path d="M40.8578 70.3508L40.204 70.111L41.4224 67.5101L42.1258 67.8652L40.8578 70.3508Z" fill="#182746"/>
<path d="M42.0267 68.5984L40.9717 68.0404C40.9717 68.0404 42.5913 64.5541 46.2417 64.5956C49.8921 64.6371 51.1254 66.8045 51.3681 67.1043C51.567 67.3691 51.7457 67.6464 51.9031 67.9344L50.8679 68.5984C50.8679 68.5984 49.0848 65.6701 46.2764 65.8638C45.3652 65.9073 44.485 66.1861 43.7344 66.6691C42.9838 67.1521 42.3925 67.8202 42.0267 68.5984Z" fill="#182746"/>
<path d="M44.5378 64.8492L48.3765 64.9092C48.3765 64.9092 47.2125 64.3096 47.2125 63.8485C47.2125 63.3873 47.1382 61.2383 47.1382 61.2383H45.6176C45.6176 61.2383 45.6473 63.4104 45.6176 63.807C45.5879 64.2036 44.5378 64.8492 44.5378 64.8492Z" fill="#182746"/>
<path d="M21.0504 81.8613C23.4084 81.8613 25.32 80.0815 25.32 77.8861C25.32 75.6907 23.4084 73.9109 21.0504 73.9109C18.6924 73.9109 16.7809 75.6907 16.7809 77.8861C16.7809 80.0815 18.6924 81.8613 21.0504 81.8613Z" fill="#808285"/>
<path d="M21.0504 81.6215C23.2662 81.6215 25.0624 79.9491 25.0624 77.8861C25.0624 75.8231 23.2662 74.1508 21.0504 74.1508C18.8347 74.1508 17.0385 75.8231 17.0385 77.8861C17.0385 79.9491 18.8347 81.6215 21.0504 81.6215Z" fill="#E6E7E8"/>
<path d="M24.1906 77.8861C24.1906 78.4644 24.0065 79.0297 23.6614 79.5105C23.3164 79.9913 22.8259 80.366 22.2521 80.5873C21.6783 80.8086 21.0469 80.8665 20.4378 80.7537C19.8286 80.6409 19.2691 80.3624 18.8299 79.9535C18.3907 79.5446 18.0917 79.0237 17.9705 78.4565C17.8493 77.8894 17.9115 77.3015 18.1492 76.7673C18.3869 76.233 18.7894 75.7764 19.3058 75.4551C19.8222 75.1339 20.4293 74.9624 21.0504 74.9624C21.8832 74.9624 22.682 75.2704 23.2709 75.8187C23.8598 76.367 24.1906 77.1107 24.1906 77.8861Z" fill="#808285"/>
<path d="M21.0505 80.2473C22.4511 80.2473 23.5865 79.1902 23.5865 77.8861C23.5865 76.5821 22.4511 75.525 21.0505 75.525C19.6499 75.525 18.5145 76.5821 18.5145 77.8861C18.5145 79.1902 19.6499 80.2473 21.0505 80.2473Z" fill="#F1F2F2"/>
<path d="M21.7786 77.8861C21.7786 78.0202 21.7359 78.1512 21.6559 78.2627C21.5759 78.3742 21.4622 78.4611 21.3291 78.5124C21.1961 78.5637 21.0497 78.5771 20.9084 78.551C20.7672 78.5248 20.6375 78.4602 20.5356 78.3654C20.4338 78.2706 20.3645 78.1498 20.3364 78.0183C20.3083 77.8868 20.3227 77.7505 20.3778 77.6267C20.4329 77.5028 20.5262 77.3969 20.646 77.3224C20.7657 77.248 20.9065 77.2082 21.0505 77.2082C21.2436 77.2082 21.4288 77.2796 21.5653 77.4067C21.7019 77.5339 21.7786 77.7063 21.7786 77.8861Z" fill="#58595B"/>
<defs>
<radialGradient id="paint0_radial" cx="0" cy="0" r="1" gradientUnits="userSpaceOnUse" gradientTransform="translate(5104.78 1460.5) scale(118.466 110.384)">
<stop offset="0.15" stop-color="#F7956E"/>
<stop offset="0.2" stop-color="#F7966F" stop-opacity="0.97"/>
<stop offset="0.29" stop-color="#F89A73" stop-opacity="0.88"/>
<stop offset="0.38" stop-color="#F9A178" stop-opacity="0.73"/>
<stop offset="0.5" stop-color="#FAA980" stop-opacity="0.53"/>
<stop offset="0.62" stop-color="#FBB58A" stop-opacity="0.27"/>
<stop offset="0.74" stop-color="#FDC094" stop-opacity="0"/>
</radialGradient>
<radialGradient id="paint1_radial" cx="0" cy="0" r="1" gradientUnits="userSpaceOnUse" gradientTransform="translate(5635.17 1490.31) scale(118.449 112.31)">
<stop offset="0.15" stop-color="#F7956E"/>
<stop offset="0.2" stop-color="#F7966F" stop-opacity="0.97"/>
<stop offset="0.29" stop-color="#F89A73" stop-opacity="0.88"/>
<stop offset="0.38" stop-color="#F9A178" stop-opacity="0.73"/>
<stop offset="0.5" stop-color="#FAA980" stop-opacity="0.53"/>
<stop offset="0.62" stop-color="#FBB58A" stop-opacity="0.27"/>
<stop offset="0.74" stop-color="#FDC094" stop-opacity="0"/>
</radialGradient>
</defs>
</svg>
