<svg width="68" height="92" viewBox="0 0 68 92" fill="none" xmlns="http://www.w3.org/2000/svg">
<path d="M15.2866 68.9457C16.3015 68.9171 16.9444 67.7356 17.215 67.1305C17.3854 66.6825 17.5026 66.2213 17.5646 65.7537C17.9537 62.6521 15.7095 55.7154 14.6494 51.7372C13.5893 47.759 11.0688 36.1533 12.8393 25.1097C14.6099 14.0661 18.7713 -0.19335 33.8436 0.00198523C48.916 0.19732 55.3836 13.6897 56.6805 29.9073C57.9774 46.1249 50.3257 61.5849 49.9761 64.8675C49.9015 65.5177 49.949 66.1737 50.1171 66.8113C50.1678 66.9543 50.8613 68.9076 52.1752 68.9457C54.2502 68.9981 54.4983 67.7928 54.4983 67.7928C54.4983 67.7928 54.6788 69.8414 52.2034 69.8366H15.3599C12.7717 69.9033 12.9578 67.788 12.9578 67.788C12.9578 67.788 13.2059 68.9981 15.2866 68.9457Z" fill="#4A392F"/>
<path d="M27.0094 46.082H40.8074C39.9616 45.3817 40.3676 41.1462 40.3676 41.1462L33.9056 41.4416L27.4492 41.1462C27.4492 41.1462 27.8552 45.3817 27.0094 46.082Z" fill="#FCC68A"/>
<path d="M55.0853 91.9857C54.8598 82.5572 54.3579 47.0348 54.3579 47.0348L44.71 46.082H23.0911L13.4151 47.0348C13.4151 47.0348 13.1388 83.0098 12.9978 91.9857H55.0853Z" fill="#65C6BC"/>
<path d="M59.1219 91.9856H67.58C67.2529 87.5644 66.8413 82.4856 66.3564 77.9691C65.8715 73.4526 64.6648 68.0404 63.7569 63.6144L52.8403 64.7387C54.3741 70.1938 56.0206 76.0396 56.607 78.0787C57.1427 79.8415 58.1971 85.7158 59.1219 91.9856Z" fill="#FCC68A"/>
<path d="M55.8064 78.5077C58.2818 77.4976 57.7856 77.5548 60.1821 76.1255C65.8546 72.6857 65.7531 72.3141 67.4504 70.456C64.9806 62.7474 64.2701 62.6665 61.4733 56.5253C57.4134 47.6066 54.3572 47.0587 54.3572 47.0587L50.7372 73.1574C50.7372 73.1574 52.0228 74.5295 52.7502 75.2394C53.9058 76.2322 54.9306 77.328 55.8064 78.5077Z" fill="#65C6BC"/>
<path d="M9.33243 91.9857C10.2346 85.7921 11.244 80.075 11.7345 78.3313C12.2984 76.2874 13.9393 70.4321 15.4504 64.9913L4.52821 63.8956C3.63166 68.3216 2.46444 73.6814 1.99078 78.2598C1.52841 82.6811 1.14497 87.6407 0.863037 92L9.33243 91.9857Z" fill="#FCC68A"/>
<path d="M12.3601 78.9412C10.7321 78.3474 9.19328 77.5926 7.7758 76.6925C2.77988 73.6815 1.69726 73.1002 0 71.2374C2.46977 63.5288 3.52419 62.6617 6.321 56.5015C10.3809 47.5828 13.4145 47.0349 13.4145 47.0349L17.091 72.4904C17.091 72.4904 15.6531 74.3199 15.1851 75.1679C14.5761 76.3018 13.2003 77.6406 12.3601 78.9412Z" fill="#65C6BC"/>
<path d="M34.5092 44.5479C32.1861 44.5479 29.4964 43.5951 27.5172 42.4421V42.9948C29.3402 44.1201 31.5016 44.7885 33.7536 44.9233C36.0056 45.0581 38.2569 44.6539 40.2495 43.7571V43.0996C38.6199 43.8428 36.3644 44.5479 34.5092 44.5479Z" fill="#EFB67D"/>
<path d="M40.8074 46.0868L34.5258 56.0441L27.0094 46.0868L33.9056 45.6532L40.8074 46.0868Z" fill="#FCC68A"/>
<path d="M50.5568 25.3241C50.5568 35.8913 43.0009 44.5384 34.447 44.5384C25.893 44.5384 18.5232 36.0628 18.5232 25.5004C18.5232 14.938 25.9268 6.29565 34.4752 6.29565C43.0235 6.29565 50.5568 14.7713 50.5568 25.3241Z" fill="#FCC68A"/>
<path opacity="0.5" d="M25.2445 28.7781C24.2754 28.6488 23.2827 28.7644 22.3911 29.1102C21.4995 29.456 20.7486 30.0166 20.2328 30.7217C19.717 31.4268 19.4593 32.245 19.4919 33.0735C19.5245 33.9019 19.8461 34.7038 20.4163 35.3784C20.9865 36.0529 21.7798 36.5701 22.6967 36.8651C23.6135 37.16 24.6131 37.2195 25.5698 37.036C26.5266 36.8526 27.3979 36.4345 28.0744 35.8341C28.7508 35.2337 29.2023 34.4779 29.372 33.6615C29.5906 32.5515 29.2785 31.4136 28.5046 30.4979C27.7306 29.5822 26.558 28.9636 25.2445 28.7781Z" fill="url(#paint0_radial)"/>
<path opacity="0.5" d="M45.4935 28.7781C44.5245 28.6498 43.5321 28.7662 42.6411 29.1126C41.7501 29.4591 41 30.0202 40.485 30.7256C39.9701 31.431 39.7132 32.2491 39.7465 33.0774C39.7799 33.9057 40.1021 34.7072 40.6727 35.3813C41.2432 36.0554 42.0368 36.5721 42.9536 36.8666C43.8705 37.161 44.8699 37.2201 45.8263 37.0364C46.7828 36.8527 47.6538 36.4344 48.3299 35.8339C49.006 35.2335 49.4571 34.4777 49.6267 33.6615C49.7348 33.1115 49.7137 32.5489 49.5645 32.0059C49.4153 31.4628 49.141 30.9499 48.7572 30.4965C48.3734 30.043 47.8876 29.6578 47.3276 29.363C46.7677 29.0682 46.1444 28.8694 45.4935 28.7781Z" fill="url(#paint1_radial)"/>
<path d="M30.3027 38.2496C32.124 39.6789 37.244 39.8361 38.7608 37.9685C38.9525 37.735 38.507 37.4921 38.3153 37.735C36.9958 39.3454 32.2311 39.2024 30.6579 37.9447C30.4155 37.7493 30.0376 38.0543 30.2801 38.2496H30.3027Z" fill="black"/>
<path d="M45.0533 26.9249C44.9655 27.346 44.7319 27.7358 44.382 28.0448C44.0321 28.3538 43.5816 28.5683 43.0875 28.661C42.5934 28.7538 42.0779 28.7208 41.606 28.566C41.1341 28.4113 40.7271 28.1419 40.4364 27.7918C40.1457 27.4417 39.9844 27.0266 39.9728 26.5991C39.9613 26.1715 40.1 25.7507 40.3714 25.3897C40.6428 25.0287 41.0348 24.7438 41.4978 24.571C41.9608 24.3982 42.474 24.3453 42.9726 24.4189C43.6414 24.5188 44.2359 24.8388 44.626 25.3085C45.016 25.7783 45.1697 26.3595 45.0533 26.9249Z" fill="black"/>
<path d="M44.9012 26.2769C44.8595 26.4843 44.7457 26.6766 44.5744 26.8294C44.4031 26.9821 44.182 27.0884 43.9391 27.1349C43.6962 27.1813 43.4424 27.1658 43.21 27.0902C42.9776 27.0146 42.7769 26.8824 42.6335 26.7104C42.4901 26.5383 42.4104 26.3342 42.4045 26.1238C42.3986 25.9135 42.4668 25.7064 42.6004 25.5288C42.7339 25.3512 42.9269 25.2111 43.1549 25.1263C43.3828 25.0415 43.6354 25.0158 43.8806 25.0524C44.2069 25.1025 44.4968 25.2589 44.6878 25.488C44.8788 25.7171 44.9554 26.0004 44.9012 26.2769Z" fill="white"/>
<path d="M42.8485 27.2299C42.8337 27.3044 42.7931 27.3734 42.7318 27.4284C42.6704 27.4833 42.5912 27.5217 42.504 27.5385C42.4169 27.5553 42.3258 27.5499 42.2423 27.5229C42.1589 27.4959 42.0868 27.4485 42.0352 27.3868C41.9836 27.3252 41.9549 27.2519 41.9527 27.1764C41.9504 27.1009 41.9748 27.0266 42.0227 26.9628C42.0705 26.899 42.1397 26.8487 42.2215 26.8182C42.3033 26.7877 42.3939 26.7784 42.482 26.7916C42.5403 26.7996 42.5962 26.8174 42.6463 26.8439C42.6964 26.8704 42.7398 26.905 42.7739 26.9458C42.808 26.9866 42.8322 27.0327 42.845 27.0815C42.8578 27.1303 42.859 27.1807 42.8485 27.2299Z" fill="#808285"/>
<path d="M29.1467 26.9249C29.0589 27.346 28.8253 27.7358 28.4754 28.0448C28.1255 28.3538 27.675 28.5683 27.1809 28.661C26.6868 28.7538 26.1712 28.7208 25.6994 28.566C25.2275 28.4113 24.8205 28.1419 24.5298 27.7918C24.2392 27.4417 24.0778 27.0266 24.0662 26.5991C24.0546 26.1715 24.1933 25.7507 24.4648 25.3897C24.7362 25.0287 25.1282 24.7438 25.5912 24.571C26.0542 24.3982 26.5674 24.3453 27.066 24.4189C27.7348 24.5188 28.3294 24.8388 28.7194 25.3085C29.1094 25.7783 29.2631 26.3595 29.1467 26.9249Z" fill="black"/>
<path d="M28.9889 26.2768C28.9461 26.4829 28.8318 26.6736 28.6607 26.8249C28.4895 26.9761 28.2691 27.0811 28.0274 27.1264C27.7856 27.1718 27.5334 27.1556 27.3026 27.0798C27.0717 27.004 26.8727 26.8721 26.7306 26.7007C26.5886 26.5293 26.5098 26.3261 26.5044 26.117C26.4991 25.9078 26.5672 25.7019 26.7003 25.5255C26.8334 25.349 27.0255 25.2099 27.2522 25.1257C27.4789 25.0415 27.73 25.016 27.9739 25.0524C28.3006 25.1012 28.591 25.2576 28.7813 25.4872C28.9716 25.7167 29.0462 26.0008 28.9889 26.2768Z" fill="white"/>
<path d="M27.1899 27.4392C27.1752 27.5136 27.1346 27.5827 27.0732 27.6377C27.0119 27.6926 26.9326 27.731 26.8455 27.7478C26.7584 27.7646 26.6672 27.7592 26.5838 27.7322C26.5003 27.7052 26.4282 27.6578 26.3766 27.5961C26.325 27.5344 26.2963 27.4612 26.2941 27.3857C26.2919 27.3102 26.3162 27.2359 26.3641 27.1721C26.412 27.1083 26.4812 27.058 26.5629 27.0275C26.6447 26.997 26.7354 26.9877 26.8234 27.0009C26.9399 27.0195 27.0432 27.0756 27.1116 27.1574C27.18 27.2392 27.2081 27.3402 27.1899 27.4392Z" fill="#808285"/>
<path d="M40.0746 24.2712C40.0746 24.2712 41.552 22.8419 43.2379 22.9039C44.9239 22.9658 45.5611 24.214 46.1983 24.2712C46.3941 24.2834 46.5907 24.258 46.7733 24.197C46.9559 24.1359 47.1198 24.0408 47.2527 23.9187C47.2527 23.9187 46.655 24.8715 45.8769 24.6524C45.0987 24.4332 44.5461 23.5137 43.1364 23.528C42.0688 23.6073 41.0292 23.8597 40.0746 24.2712Z" fill="#4F3B30"/>
<path d="M45.2397 23.6899C45.3648 23.7921 45.5209 23.863 45.6908 23.8948C45.8878 23.9057 46.0853 23.8793 46.2687 23.8175C46.4521 23.7557 46.6168 23.66 46.7508 23.5375C46.7508 23.5375 46.1475 24.4903 45.375 24.2712C45.2653 24.2444 45.1608 24.2043 45.0649 24.1521C44.4615 23.8328 44.7096 23.3231 45.2397 23.6899Z" fill="#4F3B30"/>
<path d="M28.9384 24.2712C28.9384 24.2712 27.461 22.8419 25.7694 22.9039C24.0778 22.9658 23.4519 24.214 22.8147 24.2712C22.6189 24.2834 22.4223 24.258 22.2397 24.197C22.0571 24.1359 21.8932 24.0408 21.7603 23.9187C21.7603 23.9187 22.358 24.8715 23.1361 24.6524C23.9143 24.4332 24.4668 23.5137 25.8765 23.528C26.9442 23.6073 27.9837 23.8597 28.9384 24.2712Z" fill="#4F3B30"/>
<path d="M23.7676 23.6899C23.6454 23.7928 23.4908 23.8639 23.3222 23.8948C23.1251 23.9057 22.9277 23.8793 22.7443 23.8175C22.5608 23.7557 22.3961 23.66 22.2621 23.5375C22.2621 23.5375 22.8654 24.4903 23.6379 24.2712C23.7476 24.2444 23.8521 24.2043 23.9481 24.1521C24.5796 23.8328 24.3033 23.3231 23.7676 23.6899Z" fill="#4F3B30"/>
<path d="M48.9669 23.1707L50.8841 22.0129L51.2337 22.7752L48.9669 25.1002V23.1707Z" fill="black"/>
<path d="M20.0853 23.1707L18.1681 22.0129L17.8185 22.7752L20.0853 25.1002V23.1707Z" fill="black"/>
<path d="M33.0205 23.5565C33.5085 23.4353 34.0122 23.3649 34.5204 23.3469C35.0181 23.3619 35.5119 23.4259 35.9921 23.5374V24.4569C35.5137 24.3142 35.0108 24.2386 34.5035 24.233C33.9937 24.2641 33.4931 24.3639 33.0205 24.5284V23.5565Z" fill="black"/>
<path d="M48.9722 23.1707C48.9722 23.1707 47.9911 22.4322 43.5196 22.2941C40.9319 22.1882 38.3525 22.6149 36.0031 23.5375C36.0031 23.5375 34.2044 31.7416 42.4933 31.5558C50.7823 31.37 48.9722 23.1707 48.9722 23.1707ZM42.4877 30.946C35.287 31.108 36.849 23.9854 36.849 23.9854C38.8916 23.183 41.1343 22.8118 43.3843 22.9039C47.2694 23.023 48.1208 23.6662 48.1208 23.6662C48.1208 23.6662 49.6771 30.7888 42.482 30.946H42.4877Z" fill="black"/>
<path opacity="0.1" d="M43.379 22.9037L42.4824 30.9458H42.8151C49.6267 30.579 48.1155 23.6803 48.1155 23.6803C48.1155 23.6803 47.2979 23.0657 43.6045 22.9276L43.379 22.9037Z" fill="white"/>
<path d="M26.5756 31.5558C34.8645 31.7417 33.0602 23.5376 33.0602 23.5376C30.7091 22.6142 28.1276 22.1875 25.5381 22.2941C21.0666 22.4323 20.0854 23.1707 20.0854 23.1707C20.0854 23.1707 18.2867 31.37 26.5756 31.5558ZM20.9369 23.6662C20.9369 23.6662 21.7883 23.023 25.6734 22.9039C27.9233 22.8118 30.1661 23.183 32.2087 23.9854C32.2087 23.9854 33.7706 31.108 26.57 30.946C19.3693 30.784 20.9369 23.6662 20.9369 23.6662Z" fill="black"/>
<path opacity="0.1" d="M25.6735 22.9037L26.5757 30.9458H26.2373C19.4257 30.579 20.9369 23.6803 20.9369 23.6803C20.9369 23.6803 21.7546 23.0657 25.4479 22.9276L25.6735 22.9037Z" fill="white"/>
<path d="M27.7537 12.5367C28.419 13.0989 35.6817 15.3952 43.1869 19.0399C50.0154 22.3749 52.5416 30.1454 52.5416 30.1454C52.5416 30.1454 54.9155 11.9745 46.8295 5.57132C42.4764 2.13151 28.7404 4.61846 28.7404 4.61846L27.7537 12.5367Z" fill="#4A392F"/>
<path d="M18.1343 25.667C18.1343 25.667 18.6982 22.7799 21.9517 19.0876C25.2053 15.3953 27.754 12.5367 27.754 12.5367L28.7407 4.63757C28.7407 4.63757 20.948 5.59041 18.8899 11.3504C15.2134 21.6031 18.1343 25.667 18.1343 25.667Z" fill="#4A392F"/>
<path d="M41.7207 18.7111L45.1265 13.6324L46.0512 14.0993L42.5778 19.2257L41.7207 18.7111Z" fill="#68BEE1"/>
<path d="M49.3104 24.8478C49.3104 24.8478 51.7576 23.609 52.1016 26.6391C52.4456 29.6692 51.1938 31.5034 50.4607 31.9084C49.7277 32.3134 49.333 32.1942 49.333 32.1942L49.3104 24.8478Z" fill="#FCC68A"/>
<path d="M19.7408 24.8478C19.7408 24.8478 17.2992 23.609 16.9553 26.6391C16.6113 29.6692 17.8575 31.5034 18.5905 31.9084C19.3236 32.3134 19.7183 32.1942 19.7183 32.1942L19.7408 24.8478Z" fill="#FCC68A"/>
<path d="M27.0092 46.0867L25.3514 46.082L34.5257 58.269L42.4086 46.082L40.8072 46.0867L34.5257 56.044L27.0092 46.0867Z" fill="white"/>
<path d="M52.5421 87.5359H37.3005V88.565H52.5421V87.5359Z" fill="#50B1A7"/>
<defs>
<radialGradient id="paint0_radial" cx="0" cy="0" r="1" gradientUnits="userSpaceOnUse" gradientTransform="translate(6471.63 5034.46) scale(88.6635 74.9661)">
<stop offset="0.15" stop-color="#F7956E"/>
<stop offset="0.2" stop-color="#F7966F" stop-opacity="0.97"/>
<stop offset="0.29" stop-color="#F89A73" stop-opacity="0.88"/>
<stop offset="0.38" stop-color="#F9A178" stop-opacity="0.73"/>
<stop offset="0.5" stop-color="#FAA980" stop-opacity="0.53"/>
<stop offset="0.62" stop-color="#FBB58A" stop-opacity="0.27"/>
<stop offset="0.74" stop-color="#FDC094" stop-opacity="0"/>
</radialGradient>
<radialGradient id="paint1_radial" cx="0" cy="0" r="1" gradientUnits="userSpaceOnUse" gradientTransform="translate(6849.29 5034.46) scale(88.6632 74.9661)">
<stop offset="0.15" stop-color="#F7956E"/>
<stop offset="0.2" stop-color="#F7966F" stop-opacity="0.97"/>
<stop offset="0.29" stop-color="#F89A73" stop-opacity="0.88"/>
<stop offset="0.38" stop-color="#F9A178" stop-opacity="0.73"/>
<stop offset="0.5" stop-color="#FAA980" stop-opacity="0.53"/>
<stop offset="0.62" stop-color="#FBB58A" stop-opacity="0.27"/>
<stop offset="0.74" stop-color="#FDC094" stop-opacity="0"/>
</radialGradient>
</defs>
</svg>
